<?xml version="1.0" encoding="UTF-8"?>
<svg id="Layer_1" data-name="Layer 1" xmlns="http://www.w3.org/2000/svg" viewBox="0 0 978.85 673.81">
  <defs>
    <style>
      .cls-1 {
        fill: #0d5073;
      }

      .cls-2 {
        fill: #fff;
      }

      .cls-3 {
        fill: #197f76;
      }
    </style>
  </defs>
  <circle class="cls-3" cx="156.4" cy="264.73" r="264.73"/>
  <ellipse class="cls-2" cx="377.38" cy="352.98" rx="235.71" ry="239.29"/>
  <path class="cls-1" d="M776.5,443.09c-.09.17-1.15.15-1.13.44.08.84,1.82,2.83,1.31,4.29l-1.96-.65c-.26,1.2.8,2.46.69,3.52-.05.48-1.12.45-1.35.86-1.74,2.99.57,11.16-1.46,16.13-.65,1.59-2.03,1.46-2.32,1.94-.38.63-.26,2.81-.77,4.16-.9,2.37-1.79,4.79-3.32,6.85,4.25-.01,6.62.7,10.48,2.33,5.66,2.39,10.34,6.56,15.96,8.98,1.23.53,2.84.31,3.75.84,1.4.82.91,3.16,1.49,4.09.28.44,1.6.72,2.16,1.44,3.05,3.96,1.17,5.24,6.85,1.69-2.94-2.06-5.89-4.09-5.24-8.2,2.38-.36,1.97,3.33,4.22,2.65.18-.06,1.98-2.73,2.15-3.16,1.62-4.21-1.14-6.61-1.7-11.06-.24-1.92.33-5.09-.04-6.4-.19-.68-1.71-.43-2.38-1-1.34-1.12-2.05-9.98-2.19-12.27-.24-3.89-.44-11.82,0-15.61,1.42-12.07,11.99-21.32,23.86-22.08,21.38-1.37,31.64,14.43,30.54,34.48-.45,8.14-4.27,16.17-3.31,24.33.34,2.86,1.79,2.28,3.97,3.24l-2.62,1.97c5.18-.04-2.45,5.8-1.97,6.23.59,0,1.19-.07,1.72.25,1.93,1.16,9.52,3.73,12.05,4.1,4.64.67,9.68,1.02,14.44,2.56,7.34,2.37,9.66,12.52,11.5,19.35,3.88,14.46,5.7,29.99,9.3,44.52,3.97,16,10.49,31.24,16.6,46.41,5.89,14.62,11.97,30.42,19.36,44.31,4.61,8.68,8.38,9.2,17.41,11.46,3.18.8,20.4,3.36,20.97,5.28.37,1.25-2.78,3.51-3.53,3.61-1.83.23-7.93-.95-8.22-.66-.16.16.21,1.38-.14,1.78-.32.38-3.38.86-4.15.86-3.55,0-6.81-3.38-10.54-3.95-5.83-.89-13.43,3.82-17.49-2.86-7.57-12.43-13.34-26.23-22.72-37.67l-14.22-25.81c-1.24.35-.8,4.97-1.13,6.1-.09.31-2.65,5.42-2.84,5.7-.63.96-1.96,1.15-2.14,1.46-.47.82.1,2.84-.61,4.33-.54,1.14-2.11,1.35-2.19,1.88-.26,1.68,1.43,5.75,2.67,7.11,3.86,4.23,6.88,8.44,8.84,14.13,10.94,31.77-20.8,43.33-46.4,39.17-3.59-.58-11.19-3.76-13.31-3.78-3.31-.03-11.11,2.97-15.77,3.3-15.97,1.15-27-3.78-34.12-18.36-1.29,1.39-2.03,3.15-3.28,4.59-12.28,14.14-38.09,20.75-55.28,11.29-1.46-.8-3.07-3.15-4.56-3.28-1.22-.11-7.29,3.03-9.27,3.61-10.31,3.05-23.64,5.93-33.54.44-14.54-8.07-12.61-33.06-11.92-47.21,1.06-21.66,3.47-43.69,10.55-64.3-.05-4.87-8.96-10.39-11.15-14.4,4.77-11.55,9.88-22.98,14.71-34.51,3.06-7.31,4.77-14.86,9.13-21.72,1.11-1.75,10.33-14.2,11.23-15.03,2.07-1.92,12.43-6.53,15.65-7.98,1.36-.61,5.75-1.61,6.2-2,.5-.42.64-2.2,1.18-3.09.77-1.27,2.51-1.72,2.28-3.61-.12-.94-1.15-1.67-1.33-2.74-1.03-6.01.09-9.08.64-14.4.45-4.29-1.62-12.3-1.3-17.02.1-1.42.62-3.43,1.19-4.73,2.71-6.23,10-12.46,16.93-13.26,3.55-.41,11.29.39,14.49,1.77,3.69,1.59,8.71,7.87,11,11.32,1.06,1.6,6.1,10.44,5.43,11.64ZM886.95,589.58l-10.49-36.75,1.31,36.75c.59.43,4.17-4.26,7.49-1.91.93.65.67,1.96,1.68,1.91ZM775.36,564.64c.21-1.76,1.54-4.83-.64-5.9l.64,5.9ZM793.74,634.22c-.33-4.36,2.65-7.99,3.76-11.67,2.04-6.77,1.07-12.77,1.44-19.5.42-6.42,1.01-16.7.02-22.94-.3-1.91-1.55-3.07-2.93-4.3l-16.06,25.87c.17.75,3.03,1.93,3.86,2.74,4.31,4.19,7.13,21.77,8.66,28.1.19.78.26,1.57,1.25,1.7Z"/>
</svg>