<?xml version="1.0" encoding="UTF-8"?>
<svg id="Layer_1" data-name="Layer 1" xmlns="http://www.w3.org/2000/svg" viewBox="0 0 174.34 497.11">
  <defs>
    <style>
      .cls-1 {
        fill: #5fc4bb;
      }
    </style>
  </defs>
  <path class="cls-1" d="M68.86,210.96L0,0h29.42l32.87,103.92c9.08,28.48,16.9,54.15,22.54,78.88h.63c5.95-24.41,14.71-51.02,24.1-78.56L145.23,0h29.11l-75.43,210.96h-30.05Z"/>
  <path class="cls-1" d="M68.86,353.66L0,142.7h29.42l32.87,103.92c9.08,28.48,16.9,54.15,22.54,78.88h.63c5.95-24.41,14.71-51.02,24.1-78.56l35.68-104.23h29.11l-75.43,210.96h-30.05Z"/>
  <path class="cls-1" d="M68.86,497.11L0,286.14h29.42l32.87,103.92c9.08,28.48,16.9,54.15,22.54,78.88h.63c5.95-24.41,14.71-51.02,24.1-78.56l35.68-104.23h29.11l-75.43,210.96h-30.05Z"/>
</svg>