<svg width="76" height="76" viewBox="0 0 76 76" fill="none" xmlns="http://www.w3.org/2000/svg">
<g clip-path="url(#clip0_366_18)">
<mask id="mask0_366_18" style="mask-type:luminance" maskUnits="userSpaceOnUse" x="0" y="0" width="76" height="76">
<path d="M76 0H0V76H76V0Z" fill="white"/>
</mask>
<g mask="url(#mask0_366_18)">
<path d="M23.4864 21.15C26.7487 24.6132 28.5005 28.5001 28.5005 34.8008C28.5005 45.8822 20.7215 55.8167 9.40351 60.7266L6.57664 56.3643C17.1385 50.6498 19.2025 43.2374 20.0277 38.5637C18.3272 39.4431 16.1011 39.7522 13.9189 39.5502C8.20493 39.0204 3.70162 34.3296 3.70162 28.5001C3.70162 22.3789 8.66379 17.4167 14.785 17.4167C18.1831 17.4167 21.4325 18.9698 23.4864 21.15ZM-8.18037 21.15C-4.91804 24.6132 -3.16624 28.5001 -3.16624 34.8008C-3.16624 45.8822 -10.9452 55.8167 -22.2631 60.7266L-25.0899 56.3643C-14.5283 50.6498 -12.4641 43.2374 -11.639 38.5637C-13.3395 39.4431 -15.5655 39.7522 -17.7478 39.5502C-23.4616 39.0204 -27.9648 34.3296 -27.9648 28.5001C-27.9648 22.3789 -23.0027 17.4167 -16.8815 17.4167C-13.4835 17.4167 -10.2341 18.9698 -8.18037 21.15Z" fill="#20BAAB"/>
<mask id="mask1_366_18" style="mask-type:luminance" maskUnits="userSpaceOnUse" x="29" y="0" width="76" height="76">
<path d="M105 0H29V76H105V0Z" fill="white"/>
</mask>
<g mask="url(#mask1_366_18)">
<path d="M52.4864 21.15C55.7487 24.6132 57.5005 28.5001 57.5005 34.8008C57.5005 45.8822 49.7215 55.8167 38.4036 60.7266L35.5767 56.3643C46.1385 50.6498 48.2025 43.2374 49.0277 38.5637C47.3272 39.4431 45.1011 39.7522 42.9189 39.5502C37.205 39.0204 32.7017 34.3296 32.7017 28.5001C32.7017 22.3789 37.6638 17.4167 43.785 17.4167C47.1831 17.4167 50.4325 18.9698 52.4864 21.15ZM20.8197 21.15C24.082 24.6132 25.8338 28.5001 25.8338 34.8008C25.8338 45.8822 18.0548 55.8167 6.73693 60.7266L3.91008 56.3643C14.4717 50.6498 16.5359 43.2374 17.361 38.5637C15.6605 39.4431 13.4345 39.7522 11.2522 39.5502C5.53838 39.0204 1.03516 34.3296 1.03516 28.5001C1.03516 22.3789 5.99732 17.4167 12.1185 17.4167C15.5165 17.4167 18.7659 18.9698 20.8197 21.15Z" fill="#20BAAB"/>
</g>
</g>
</g>
<defs>
<clipPath id="clip0_366_18">
<rect width="76" height="76" fill="white"/>
</clipPath>
</defs>
</svg>
