<?xml version="1.0" encoding="UTF-8"?>
<svg id="Layer_1" data-name="Layer 1" xmlns="http://www.w3.org/2000/svg" viewBox="0 0 308.13 635.49">
  <defs>
    <style>
      .cls-1 {
        fill: #5fc4bb;
      }
    </style>
  </defs>
  <path class="cls-1" d="M121.7,214.36L0,0h52l58.08,105.59c16.04,28.94,29.87,55.02,39.83,80.15h1.11c10.51-24.81,26-51.84,42.59-79.83L256.68,0h51.45l-133.32,214.36h-53.11Z"/>
  <path class="cls-1" d="M121.7,421.12L0,206.76h52l58.08,105.59c16.04,28.94,29.87,55.02,39.83,80.15h1.11c10.51-24.81,26-51.84,42.59-79.83l63.06-105.91h51.45l-133.32,214.36h-53.11Z"/>
  <path class="cls-1" d="M121.7,635.49L0,421.12h52l58.08,105.59c16.04,28.94,29.87,55.02,39.83,80.15h1.11c10.51-24.81,26-51.84,42.59-79.83l63.06-105.91h51.45l-133.32,214.36h-53.11Z"/>
</svg>